<svg xmlns="http://www.w3.org/2000/svg" width="736" height="128" class="svgbob"><style>.svgbob line, .svgbob path, .svgbob circle, .svgbob rect, .svgbob polygon {
    stroke: black;
    stroke-width: 2;
    stroke-opacity: 1;
    fill-opacity: 1;
    stroke-linecap: round;
    stroke-linejoin: miter;
}
.svgbob text {
    white-space: pre;
    fill: black;
    font-family: Iosevka Fixed, monospace;
    font-size: 14px;
}
.svgbob rect.backdrop {
    stroke: none;
    fill: white;
}
.svgbob .broken {
    stroke-dasharray: 8;
}
.svgbob .filled {
    fill: black;
}
.svgbob .bg_filled {
    fill: white;
    stroke-width: 1;
}
.svgbob .nofill {
    fill: white;
}
.svgbob .end_marked_arrow {
    marker-end: url(#arrow);
}
.svgbob .start_marked_arrow {
    marker-start: url(#arrow);
}
.svgbob .end_marked_diamond {
    marker-end: url(#diamond);
}
.svgbob .start_marked_diamond {
    marker-start: url(#diamond);
}
.svgbob .end_marked_circle {
    marker-end: url(#circle);
}
.svgbob .start_marked_circle {
    marker-start: url(#circle);
}
.svgbob .end_marked_open_circle {
    marker-end: url(#open_circle);
}
.svgbob .start_marked_open_circle {
    marker-start: url(#open_circle);
}
.svgbob .end_marked_big_open_circle {
    marker-end: url(#big_open_circle);
}
.svgbob .start_marked_big_open_circle {
    marker-start: url(#big_open_circle);
}<!--separator--></style><defs><marker id="arrow" viewBox="-2 -2 8 8" refX="4" refY="2" markerWidth="7" markerHeight="7" orient="auto-start-reverse"><polygon points="0,0 0,4 4,2 0,0"></polygon></marker><marker id="diamond" viewBox="-2 -2 8 8" refX="4" refY="2" markerWidth="7" markerHeight="7" orient="auto-start-reverse"><polygon points="0,2 2,0 4,2 2,4 0,2"></polygon></marker><marker id="circle" viewBox="0 0 8 8" refX="4" refY="4" markerWidth="7" markerHeight="7" orient="auto-start-reverse"><circle cx="4" cy="4" r="2" class="filled"></circle></marker><marker id="open_circle" viewBox="0 0 8 8" refX="4" refY="4" markerWidth="7" markerHeight="7" orient="auto-start-reverse"><circle cx="4" cy="4" r="2" class="bg_filled"></circle></marker><marker id="big_open_circle" viewBox="0 0 8 8" refX="4" refY="4" markerWidth="7" markerHeight="7" orient="auto-start-reverse"><circle cx="4" cy="4" r="3" class="bg_filled"></circle></marker></defs><rect class="backdrop" x="0" y="0" width="736" height="128"></rect><text x="2" y="12" >Galois</text><text x="58" y="12" >feed</text><line x1="88" y1="8" x2="96" y2="8" class="solid"></line><text x="98" y="12" >forward</text><text x="162" y="12" >style</text><polygon points="200,68 208,68 204,80" class="filled"></polygon><polygon points="424,68 432,68 428,80" class="filled"></polygon><polygon points="544,68 552,68 548,80" class="filled"></polygon><polygon points="48,84 56,88 48,92" class="filled"></polygon><text x="74" y="92" >0</text><polygon points="112,84 120,88 112,92" class="filled"></polygon><text x="138" y="92" >1</text><polygon points="176,84 184,88 176,92" class="filled"></polygon><path d="M 192,80 A 16,16 0,0,0 192,96" class="nofill"></path><text x="202" y="92" >+</text><text x="426" y="92" >+</text><text x="546" y="92" >+</text><text x="594" y="44" >DIN</text><path d="M 632,32 A 16,16 0,0,0 632,48" class="nofill"></path><text x="642" y="44" >msb</text><text x="674" y="44" >first</text><path d="M 720,32 A 16,16 0,0,1 720,48" class="nofill"></path><path d="M 216,80 A 16,16 0,0,1 216,96" class="nofill"></path><line x1="224" y1="88" x2="232" y2="88" class="solid"></line><polygon points="232,84 240,88 232,92" class="filled"></polygon><text x="266" y="92" >2</text><polygon points="296,84 304,88 296,92" class="filled"></polygon><text x="306" y="92" >...</text><line x1="328" y1="88" x2="336" y2="88" class="solid"></line><polygon points="336,84 344,88 336,92" class="filled"></polygon><text x="362" y="92" >14</text><polygon points="400,84 408,88 400,92" class="filled"></polygon><path d="M 416,80 A 16,16 0,0,0 416,96" class="nofill"></path><path d="M 440,80 A 16,16 0,0,1 440,96" class="nofill"></path><line x1="448" y1="88" x2="456" y2="88" class="solid"></line><polygon points="456,84 464,88 456,92" class="filled"></polygon><text x="482" y="92" >15</text><polygon points="520,84 528,88 520,92" class="filled"></polygon><path d="M 536,80 A 16,16 0,0,0 536,96" class="nofill"></path><path d="M 560,80 A 16,16 0,0,1 560,96" class="nofill"></path><line x1="568" y1="88" x2="576" y2="88" class="solid"></line><polygon points="576,84 584,88 576,92" class="filled"></polygon><text x="594" y="92" >DOUT</text><g><path d="M 40,40 A 4,4 0,0,0 36,44" class="nofill"></path><line x1="36" y1="44" x2="36" y2="84" class="solid"></line><line x1="40" y1="40" x2="584" y2="40" class="solid"></line><line x1="204" y1="40" x2="204" y2="68" class="solid"></line><line x1="428" y1="40" x2="428" y2="68" class="solid"></line><line x1="548" y1="40" x2="548" y2="68" class="solid"></line><path d="M 36,84 A 4,4 0,0,0 40,88" class="nofill"></path><line x1="40" y1="88" x2="48" y2="88" class="solid"></line></g><g><path d="M 64,72 A 4,4 0,0,0 60,76" class="nofill"></path><line x1="60" y1="76" x2="60" y2="100" class="solid"></line><line x1="64" y1="72" x2="96" y2="72" class="solid"></line><path d="M 96,72 A 4,4 0,0,1 100,76" class="nofill"></path><line x1="100" y1="76" x2="100" y2="100" class="solid"></line><line x1="100" y1="88" x2="112" y2="88" class="solid"></line><path d="M 60,100 A 4,4 0,0,0 64,104" class="nofill"></path><line x1="64" y1="104" x2="96" y2="104" class="solid"></line><path d="M 100,100 A 4,4 0,0,1 96,104" class="nofill"></path></g><g><path d="M 128,72 A 4,4 0,0,0 124,76" class="nofill"></path><line x1="124" y1="76" x2="124" y2="100" class="solid"></line><line x1="128" y1="72" x2="160" y2="72" class="solid"></line><path d="M 160,72 A 4,4 0,0,1 164,76" class="nofill"></path><line x1="164" y1="76" x2="164" y2="100" class="solid"></line><line x1="164" y1="88" x2="176" y2="88" class="solid"></line><path d="M 124,100 A 4,4 0,0,0 128,104" class="nofill"></path><line x1="128" y1="104" x2="160" y2="104" class="solid"></line><path d="M 164,100 A 4,4 0,0,1 160,104" class="nofill"></path></g><g><path d="M 248,72 A 4,4 0,0,0 244,76" class="nofill"></path><line x1="244" y1="76" x2="244" y2="100" class="solid"></line><line x1="248" y1="72" x2="280" y2="72" class="solid"></line><path d="M 280,72 A 4,4 0,0,1 284,76" class="nofill"></path><line x1="284" y1="76" x2="284" y2="100" class="solid"></line><line x1="284" y1="88" x2="296" y2="88" class="solid"></line><path d="M 244,100 A 4,4 0,0,0 248,104" class="nofill"></path><line x1="248" y1="104" x2="280" y2="104" class="solid"></line><path d="M 284,100 A 4,4 0,0,1 280,104" class="nofill"></path></g><g><path d="M 352,72 A 4,4 0,0,0 348,76" class="nofill"></path><line x1="348" y1="76" x2="348" y2="100" class="solid"></line><line x1="352" y1="72" x2="384" y2="72" class="solid"></line><path d="M 384,72 A 4,4 0,0,1 388,76" class="nofill"></path><line x1="388" y1="76" x2="388" y2="100" class="solid"></line><line x1="388" y1="88" x2="400" y2="88" class="solid"></line><path d="M 348,100 A 4,4 0,0,0 352,104" class="nofill"></path><line x1="352" y1="104" x2="384" y2="104" class="solid"></line><path d="M 388,100 A 4,4 0,0,1 384,104" class="nofill"></path></g><g><path d="M 472,72 A 4,4 0,0,0 468,76" class="nofill"></path><line x1="468" y1="76" x2="468" y2="100" class="solid"></line><line x1="472" y1="72" x2="504" y2="72" class="solid"></line><path d="M 504,72 A 4,4 0,0,1 508,76" class="nofill"></path><line x1="508" y1="76" x2="508" y2="100" class="solid"></line><line x1="508" y1="88" x2="520" y2="88" class="solid"></line><path d="M 468,100 A 4,4 0,0,0 472,104" class="nofill"></path><line x1="472" y1="104" x2="504" y2="104" class="solid"></line><path d="M 508,100 A 4,4 0,0,1 504,104" class="nofill"></path></g></svg>